<svg width="29" height="27" viewBox="0 0 29 27" fill="none" xmlns="http://www.w3.org/2000/svg">
<path d="M10.3959 2.8891C10.41 2.84521 10.4403 2.81973 10.4857 2.81318L12.8336 2.47214C13.0019 2.44767 13.1474 2.34198 13.2228 2.18937L14.2729 0.0616768C14.3133 -0.0205589 14.4323 -0.0205589 14.4727 0.0616768L15.5228 2.18937C15.5982 2.34198 15.7438 2.44767 15.912 2.47214L18.2597 2.81318C18.3053 2.81974 18.3356 2.84521 18.3497 2.8891C18.3641 2.93299 18.3545 2.97158 18.3215 3.00362L16.6226 4.65962C16.501 4.77843 16.4455 4.94945 16.474 5.11695L16.8751 7.45527C16.8829 7.50068 16.868 7.53751 16.8307 7.56449C16.7939 7.59148 16.754 7.59476 16.7132 7.57307L14.6132 6.469C14.538 6.42939 14.4553 6.40972 14.3728 6.40972C14.2903 6.40972 14.2076 6.4294 14.1324 6.469L12.0325 7.57307C11.9926 7.59476 11.9523 7.59199 11.9149 7.56449C11.8776 7.53751 11.8627 7.50068 11.8705 7.45527L12.2716 5.11695C12.3001 4.94945 12.2446 4.77843 12.123 4.65962L10.4242 3.00388C10.3911 2.97158 10.3815 2.93299 10.3959 2.8891Z" fill="#C22034"/>
<path d="M5.34006 9.89398C5.35444 9.85009 5.38471 9.82461 5.43036 9.81806L7.77827 9.47676C7.94651 9.4523 8.0918 9.34661 8.16698 9.194L9.21734 7.06656C9.2577 6.98407 9.3765 6.98458 9.41737 7.06656L10.4672 9.194C10.5426 9.34661 10.6879 9.4523 10.8562 9.47676L13.2041 9.81806C13.2497 9.82462 13.2803 9.85009 13.2944 9.89398C13.3085 9.93761 13.2992 9.97621 13.2659 10.0082L11.567 11.6642C11.4454 11.7831 11.3899 11.9541 11.4184 12.1216L11.8195 14.4599C11.8273 14.5053 11.8124 14.5421 11.7754 14.5691C11.738 14.5964 11.6984 14.5996 11.6576 14.5777L9.5576 13.4736C9.48243 13.434 9.3997 13.4143 9.31721 13.4143C9.23473 13.4143 9.15199 13.434 9.07682 13.4736L6.97687 14.5777C6.93676 14.5994 6.89691 14.5964 6.85932 14.5691C6.82199 14.5421 6.80711 14.5053 6.81493 14.4599L7.216 12.1216C7.24451 11.9541 7.18901 11.7831 7.06743 11.6642L5.36855 10.0085C5.33552 9.97621 5.32593 9.93761 5.34006 9.89398Z" fill="#C22034"/>
<path d="M19.5281 7.06656H19.5283L20.5784 9.194C20.6536 9.34661 20.7989 9.4523 20.9671 9.47676L23.315 9.81806C23.3607 9.82462 23.391 9.85009 23.4053 9.89398C23.4195 9.93762 23.4099 9.97622 23.3768 10.0082L21.678 11.6642C21.5564 11.7831 21.5009 11.9541 21.5294 12.1216L21.9305 14.4599C21.9383 14.5053 21.9234 14.5421 21.8861 14.5691C21.8492 14.5961 21.8091 14.5994 21.7685 14.5777L19.6686 13.4736C19.5934 13.434 19.5107 13.4143 19.4282 13.4143C19.3457 13.4143 19.263 13.434 19.1878 13.4736L17.0878 14.5777C17.048 14.5994 17.0079 14.5964 16.9703 14.5691C16.933 14.5421 16.9181 14.5053 16.9259 14.4599L17.327 12.1216C17.3555 11.9541 17.3 11.7831 17.1784 11.6642L15.4795 10.0085C15.4465 9.97622 15.4369 9.93763 15.451 9.89398C15.4654 9.85009 15.4957 9.82461 15.5413 9.81806L17.8892 9.47676C18.0575 9.4523 18.2028 9.34661 18.2779 9.194L19.3283 7.06656C19.3687 6.98432 19.4877 6.98432 19.5281 7.06656Z" fill="#C22034"/>
<path d="M6.27395 17.668H13.4486C13.5983 17.668 13.7196 17.7893 13.7196 17.939V25.8471C13.7196 25.9967 13.5983 26.1181 13.4486 26.1181H6.27395C6.12427 26.1181 6.00293 25.9967 6.00293 25.8471V17.939C6.00293 17.7893 6.12427 17.668 6.27395 17.668ZM22.2497 26.1181H15.0748C14.9251 26.1181 14.8037 25.9967 14.8037 25.8471V17.939C14.8037 17.7893 14.9251 17.668 15.0748 17.668H22.2497C22.3994 17.668 22.5207 17.7893 22.5207 17.939V25.8471C22.5207 25.9967 22.3994 26.1181 22.2497 26.1181Z" fill="#C22034"/>
<path d="M5.68539 16.1077L1.04983 11.4722C0.809591 11.2319 0.420419 11.2319 0.18018 11.4722C-0.0600599 11.7124 -0.0600599 12.1016 0.18018 12.3418L4.81574 16.9774C4.93586 17.0975 5.09321 17.1576 5.25057 17.1576C5.40793 17.1576 5.56527 17.0975 5.68539 16.9774C5.92563 16.7371 5.92563 16.348 5.68539 16.1077Z" fill="#C22034"/>
<path d="M28.5893 11.2261C28.3491 10.9858 27.9599 10.9858 27.7196 11.2261L22.9469 15.9988C22.7067 16.2391 22.7067 16.6282 22.9469 16.8685C23.067 16.9886 23.2244 17.0486 23.3817 17.0486C23.5391 17.0486 23.6964 16.9886 23.8166 16.8685L28.5893 12.0957C28.8295 11.8555 28.8295 11.4663 28.5893 11.2261Z" fill="#C22034"/>
</svg>
