<svg width="28" height="28" viewBox="0 0 28 28" fill="none" xmlns="http://www.w3.org/2000/svg">
<g clip-path="url(#clip0_1627_557)">
<path d="M14 16.4609C16.7141 16.4609 18.9219 14.2531 18.9219 11.5391C18.9219 8.82498 16.7141 6.61719 14 6.61719C11.2859 6.61719 9.07812 8.82498 9.07812 11.5391C9.07812 14.2531 11.2859 16.4609 14 16.4609ZM10.9591 11.7794C11.2795 11.459 11.7987 11.459 12.1191 11.7794L13.1797 12.84L15.881 10.1387C16.2014 9.81832 16.7205 9.81832 17.041 10.1387C17.3614 10.4591 17.3614 10.9783 17.041 11.2987L13.7597 14.58C13.5995 14.7402 13.3896 14.8203 13.1797 14.8203C12.9699 14.8203 12.76 14.7402 12.5998 14.58L10.9592 12.9393C10.6386 12.6189 10.6386 12.0998 10.9591 11.7794Z" fill="#C22034"/>
<path d="M2.75606 10.959C2.43564 11.2794 2.43564 11.7986 2.75606 12.119L4.33981 13.7027C4.54647 13.9094 4.62741 14.213 4.5521 14.495L3.97291 16.6587C3.85593 17.0961 4.11548 17.5463 4.55287 17.6633L6.71658 18.2432C6.99855 18.3185 7.22047 18.5404 7.29578 18.8232L7.87574 20.9861C7.99348 21.4243 8.44613 21.6846 8.88029 21.5661L11.0432 20.9869C11.3292 20.9116 11.6297 20.9917 11.8363 21.1992L13.4201 22.7829C13.5803 22.9432 13.7902 23.0233 14 23.0233C14.2099 23.0233 14.4198 22.9432 14.58 22.7829L16.1637 21.1992C16.3688 20.9933 16.6724 20.9124 16.956 20.9869L19.1197 21.5661C19.5611 21.6855 20.0073 21.4243 20.1243 20.9861L20.7042 18.8224C20.7795 18.5404 21.0015 18.3185 21.2842 18.2432L23.4471 17.6633C23.8845 17.5463 24.1441 17.0961 24.0271 16.6587L23.4479 14.4958C23.3726 14.213 23.4535 13.9093 23.6602 13.7027L25.2439 12.1189C25.5644 11.7985 25.5644 11.2794 25.2439 10.959L23.6602 9.3752C23.4535 9.16854 23.3726 8.86491 23.4479 8.58294L24.0271 6.41923C24.1441 5.98184 23.8845 5.53165 23.4471 5.41468L21.2834 4.83472C21.0015 4.75941 20.7795 4.53749 20.7042 4.25476L20.1243 2.09181C20.0065 1.6536 19.5603 1.39728 19.1197 1.51185L16.9568 2.09104C16.6684 2.16312 16.3688 2.08541 16.1637 1.87875L14.5799 0.240311C14.2595 -0.0801035 13.7404 -0.0801035 13.42 0.240311L11.8362 1.87875C11.6295 2.08541 11.3267 2.16394 11.0439 2.09104L8.88024 1.51185C8.44684 1.39892 7.99343 1.65365 7.87568 2.09181L7.29572 4.25552C7.22042 4.53749 6.9985 4.75941 6.71576 4.83472L4.55287 5.41468C4.11548 5.53165 3.85593 5.98184 3.97291 6.41923L4.5521 8.58218C4.62741 8.86497 4.54647 9.16859 4.33981 9.37526L2.75606 10.959ZM14.0001 4.97647C17.6186 4.97647 20.5626 7.92046 20.5626 11.539C20.5626 15.1575 17.6186 18.1015 14.0001 18.1015C10.3816 18.1015 7.43758 15.1575 7.43758 11.539C7.43758 7.92046 10.3816 4.97647 14.0001 4.97647Z" fill="#C22034"/>
<path d="M22.1663 19.7053L21.7089 21.4108C21.4222 22.4851 20.4464 23.2357 19.3361 23.2357C19.119 23.2357 18.9019 23.2069 18.6912 23.15L16.9889 22.6942L16.2708 23.4123L18.6512 27.5898C18.7938 27.8357 19.0534 27.9911 19.3369 28C19.3457 28 19.3538 28 19.3617 28C19.6365 28 19.8945 27.8621 20.0467 27.6315L21.8411 24.8579L25.0935 24.6624C25.3779 24.6456 25.6327 24.483 25.7672 24.2323C25.9018 23.9823 25.897 23.6795 25.7552 23.4336L23.4104 19.3721L22.1663 19.7053Z" fill="#C22034"/>
<path d="M2.23286 24.2326C2.36744 24.4834 2.62218 24.646 2.90655 24.6628L6.15898 24.8583L7.95345 27.6319C8.10564 27.8626 8.3636 28.0003 8.63835 28.0003C8.64633 28.0003 8.65437 28.0003 8.66318 28.0003C8.94679 27.9915 9.20634 27.8361 9.34891 27.5902L11.7293 23.4127L11.0112 22.6946L9.30488 23.1512C9.10221 23.2065 8.8851 23.2361 8.66723 23.2361C7.55691 23.2361 6.57959 22.4863 6.29122 21.4128L5.83381 19.7057L4.58994 19.3721L2.24489 23.434C2.10309 23.6799 2.09827 23.9827 2.23286 24.2326Z" fill="#C22034"/>
</g>
<defs>
<clipPath id="clip0_1627_557">
<rect width="28" height="28" fill="white"/>
</clipPath>
</defs>
</svg>
