<svg width="1233" height="450" viewBox="0 0 1233 450" fill="none" xmlns="http://www.w3.org/2000/svg">
<path d="M313.643 191.558C313.352 194.717 295.172 195.63 273.037 193.595C250.901 191.561 233.193 187.35 233.484 184.19C233.774 181.031 251.954 180.119 274.09 182.153C296.225 184.187 313.934 188.398 313.643 191.558Z" fill="#76A379"/>
<path d="M216.252 275.148C215.961 278.308 197.781 279.22 175.645 277.186C153.51 275.151 135.801 270.941 136.092 267.781C136.383 264.621 154.563 263.709 176.699 265.743C198.834 267.778 216.542 271.989 216.252 275.148Z" fill="#76A379"/>
<path d="M320.746 241.623C318.897 244.202 302.749 235.807 284.679 222.872C266.608 209.937 253.459 197.359 255.308 194.78C257.158 192.2 273.306 200.596 291.376 213.531C309.446 226.466 322.596 239.044 320.746 241.623Z" fill="#76A379"/>
<path d="M194.427 264.559C192.577 267.138 176.429 258.743 158.359 245.808C140.289 232.872 127.139 220.295 128.989 217.716C130.838 215.136 146.986 223.531 165.056 236.467C183.127 249.402 196.276 261.979 194.427 264.559Z" fill="#76A379"/>
<path d="M302.258 287.473C299.374 288.799 289.501 273.519 280.206 253.342C270.912 233.166 265.716 215.734 268.6 214.407C271.485 213.081 281.358 228.361 290.652 248.538C299.947 268.714 305.143 286.146 302.258 287.473Z" fill="#76A379"/>
<path d="M181.135 244.931C178.25 246.258 168.377 230.977 159.083 210.801C149.788 190.625 144.592 173.193 147.477 171.866C150.361 170.539 160.234 185.82 169.529 205.997C178.823 226.173 184.02 243.605 181.135 244.931Z" fill="#76A379"/>
<path d="M262.403 318.632C259.242 318.32 258.454 300.149 260.641 278.045C262.828 255.942 267.162 238.277 270.323 238.589C273.483 238.901 274.272 257.072 272.084 279.176C269.897 301.279 265.563 318.945 262.403 318.632Z" fill="#76A379"/>
<path d="M179.412 220.75C176.252 220.438 175.464 202.266 177.651 180.163C179.838 158.059 184.172 140.394 187.333 140.706C190.493 141.018 191.281 159.19 189.094 181.293C186.907 203.397 182.573 221.062 179.412 220.75Z" fill="#76A379"/>
<path d="M213.565 325.552C210.971 323.722 219.261 307.53 232.082 289.385C244.903 271.24 257.399 258.015 259.993 259.845C262.588 261.675 254.297 277.868 241.476 296.012C228.655 314.157 216.159 327.382 213.565 325.552Z" fill="#76A379"/>
<path d="M189.742 199.494C187.148 197.664 195.438 181.471 208.259 163.326C221.08 145.182 233.576 131.956 236.17 133.786C238.764 135.616 230.474 151.809 217.653 169.954C204.832 188.098 192.336 201.324 189.742 199.494Z" fill="#76A379"/>
<path d="M166.611 306.693C165.298 303.803 180.643 294.019 200.884 284.838C221.125 275.658 238.598 270.558 239.911 273.447C241.223 276.337 225.878 286.121 205.637 295.302C185.396 304.482 167.923 309.582 166.611 306.693Z" fill="#76A379"/>
<path d="M209.824 185.891C208.512 183.002 223.857 173.218 244.098 164.037C264.339 154.857 281.812 149.757 283.124 152.646C284.437 155.535 269.092 165.32 248.851 174.5C228.61 183.681 211.137 188.781 209.824 185.891Z" fill="#76A379"/>
<path d="M201.968 143.811C200.251 142.594 205.74 131.825 214.229 119.758C222.718 107.691 230.992 98.8954 232.71 100.113C234.427 101.33 228.938 112.098 220.449 124.165C211.96 136.232 203.686 145.028 201.968 143.811Z" fill="#76A379"/>
<path d="M217.026 349.623C215.308 348.406 220.798 337.637 229.287 325.57C237.776 313.503 246.05 304.708 247.767 305.925C249.485 307.142 243.996 317.911 235.507 329.978C227.018 342.045 218.744 350.84 217.026 349.623Z" fill="#76A379"/>
<path d="M244.978 143.074C244.085 141.167 254.176 134.514 267.515 128.213C280.855 121.913 292.393 118.351 293.286 120.257C294.178 122.164 284.088 128.817 270.748 135.118C257.408 141.419 245.87 144.981 244.978 143.074Z" fill="#76A379"/>
<path d="M156.45 329.478C155.557 327.572 165.648 320.918 178.987 314.618C192.327 308.317 203.865 304.755 204.758 306.662C205.65 308.568 195.56 315.222 182.22 321.522C168.88 327.823 157.342 331.385 156.45 329.478Z" fill="#76A379"/>
<path d="M283.876 164.768C284.08 162.672 296.153 162.096 310.84 163.481C325.528 164.865 337.269 167.686 337.065 169.781C336.86 171.877 324.788 172.453 310.1 171.068C295.413 169.684 283.672 166.863 283.876 164.768Z" fill="#76A379"/>
<path d="M112.671 279.954C112.875 277.859 124.948 277.283 139.635 278.667C154.323 280.052 166.064 282.873 165.86 284.968C165.655 287.063 153.583 287.64 138.895 286.255C124.207 284.871 112.467 282.05 112.671 279.954Z" fill="#76A379"/>
<path d="M305.874 201.816C307.087 200.096 317.865 205.566 329.946 214.034C342.028 222.501 350.838 230.76 349.624 232.48C348.41 234.2 337.632 228.73 325.551 220.262C313.47 211.795 304.66 203.536 305.874 201.816Z" fill="#76A379"/>
<path d="M100.112 217.256C101.326 215.536 112.103 221.006 124.185 229.473C136.266 237.941 145.076 246.2 143.862 247.92C142.648 249.64 131.87 244.17 119.789 235.702C107.708 227.235 98.898 218.976 100.112 217.256Z" fill="#76A379"/>
<path d="M306.69 244.829C308.595 243.932 315.266 254.012 321.59 267.342C327.915 280.671 331.498 292.204 329.593 293.1C327.688 293.996 321.017 283.917 314.693 270.587C308.368 257.257 304.785 245.725 306.69 244.829Z" fill="#76A379"/>
<path d="M120.143 156.636C122.047 155.739 128.718 165.819 135.043 179.148C141.368 192.478 144.951 204.011 143.046 204.907C141.141 205.803 134.47 195.724 128.145 182.394C121.821 169.064 118.238 157.532 120.143 156.636Z" fill="#76A379"/>
<path d="M285.07 283.771C287.166 283.972 287.764 296.045 286.407 310.736C285.05 325.428 282.251 337.175 280.156 336.975C278.06 336.774 277.462 324.702 278.819 310.01C280.176 295.318 282.975 283.571 285.07 283.771Z" fill="#76A379"/>
<path d="M169.58 112.761C171.676 112.961 172.274 125.034 170.917 139.726C169.56 154.418 166.761 166.165 164.665 165.964C162.57 165.764 161.971 153.691 163.328 138.999C164.686 124.308 167.485 112.56 169.58 112.761Z" fill="#76A379"/>
<path d="M211.356 222.754C212.607 221.711 215.109 220.752 215.109 225.256V237.141C215.943 239.017 218.487 241.644 221.99 237.141L231.373 224.005C232.207 222.754 233.875 221.503 233.875 226.507C234.375 227.007 234.083 231.303 233.875 233.388C234.292 237.349 237.378 243.771 246.386 237.767C249.239 235.484 255.112 230.491 257.639 227.353C257.641 227.488 257.645 227.623 257.645 227.758C257.645 245.376 243.363 259.659 225.744 259.659C213.013 259.659 202.025 252.201 196.908 241.416L211.356 222.754Z" fill="#33442C"/>
<path d="M225.745 195.859C241.839 195.86 255.147 207.779 257.33 223.271L247.01 232.767C239.504 238.271 238.044 233.392 238.252 230.265V220.256C236.751 214.752 232.623 216.711 230.746 218.379L218.236 232.767V218.379C215.734 212.875 211.356 216.085 209.479 218.379L195.338 237.438C194.368 234.385 193.842 231.134 193.842 227.761C193.842 210.142 208.126 195.859 225.745 195.859Z" fill="#76A379"/>
<path d="M510.543 189.081C518.182 189.081 524.999 190.634 530.992 193.742C537.104 196.849 541.864 201.452 545.272 207.551C548.797 213.651 550.56 221.016 550.56 229.647V285.75H530.64V232.582C530.64 224.066 528.466 217.564 524.117 213.075C519.769 208.472 513.834 206.17 506.312 206.17C498.791 206.17 492.797 208.472 488.331 213.075C483.982 217.564 481.808 224.066 481.808 232.582V285.75H461.888V232.582C461.888 224.066 459.714 217.564 455.365 213.075C451.017 208.472 445.082 206.17 437.56 206.17C430.038 206.17 424.045 208.472 419.579 213.075C415.23 217.564 413.056 224.066 413.056 232.582V285.75H392.959V190.634H413.056V201.51C416.347 197.597 420.519 194.547 425.573 192.361C430.626 190.174 436.032 189.081 441.791 189.081C449.548 189.081 456.482 190.692 462.593 193.914C468.704 197.137 473.405 201.797 476.696 207.897C479.634 202.143 484.218 197.597 490.446 194.26C496.675 190.807 503.374 189.081 510.543 189.081Z" fill="#76A379"/>
<path d="M569.434 237.76C569.434 228.209 571.432 219.75 575.428 212.385C579.541 205.02 585.065 199.323 591.999 195.295C599.05 191.152 606.807 189.081 615.269 189.081C622.908 189.081 629.548 190.577 635.189 193.569C640.948 196.446 645.532 200.071 648.94 204.444V190.634H669.213V285.75H648.94V271.594C645.532 276.083 640.889 279.823 635.013 282.815C629.137 285.807 622.438 287.303 614.916 287.303C606.572 287.303 598.933 285.232 591.999 281.089C585.065 276.831 579.541 270.962 575.428 263.481C571.432 255.886 569.434 247.312 569.434 237.76ZM648.94 238.106C648.94 231.546 647.53 225.849 644.709 221.016C642.006 216.183 638.421 212.5 633.955 209.968C629.489 207.436 624.671 206.17 619.5 206.17C614.329 206.17 609.51 207.436 605.044 209.968C600.578 212.385 596.935 216.01 594.114 220.843C591.411 225.562 590.06 231.201 590.06 237.76C590.06 244.32 591.411 250.074 594.114 255.023C596.935 259.971 600.578 263.769 605.044 266.416C609.628 268.948 614.446 270.213 619.5 270.213C624.671 270.213 629.489 268.948 633.955 266.416C638.421 263.884 642.006 260.201 644.709 255.368C647.53 250.419 648.94 244.665 648.94 238.106Z" fill="#76A379"/>
<path d="M745.851 189.081C753.255 189.081 759.837 190.634 765.595 193.742C771.472 196.849 776.055 201.452 779.346 207.551C782.754 213.651 784.458 221.016 784.458 229.647V285.75H764.538V232.582C764.538 224.066 762.363 217.564 758.015 213.075C753.667 208.472 747.731 206.17 740.21 206.17C732.688 206.17 726.695 208.472 722.229 213.075C717.88 217.564 715.706 224.066 715.706 232.582V285.75H695.609V158.009H715.706V201.682C719.114 197.654 723.404 194.547 728.575 192.361C733.864 190.174 739.622 189.081 745.851 189.081Z" fill="#76A379"/>
<path d="M803.394 237.76C803.394 228.209 805.392 219.75 809.388 212.385C813.501 205.02 819.025 199.323 825.959 195.295C833.01 191.152 840.767 189.081 849.229 189.081C856.868 189.081 863.508 190.577 869.149 193.569C874.908 196.446 879.491 200.071 882.899 204.444V190.634H903.173V285.75H882.899V271.594C879.491 276.083 874.849 279.823 868.973 282.815C863.097 285.807 856.398 287.303 848.876 287.303C840.532 287.303 832.893 285.232 825.959 281.089C819.025 276.831 813.501 270.962 809.388 263.481C805.392 255.886 803.394 247.312 803.394 237.76ZM882.899 238.106C882.899 231.546 881.489 225.849 878.669 221.016C875.965 216.183 872.381 212.5 867.915 209.968C863.449 207.436 858.631 206.17 853.459 206.17C848.288 206.17 843.47 207.436 839.004 209.968C834.538 212.385 830.895 216.01 828.074 220.843C825.371 225.562 824.019 231.201 824.019 237.76C824.019 244.32 825.371 250.074 828.074 255.023C830.895 259.971 834.538 263.769 839.004 266.416C843.587 268.948 848.406 270.213 853.459 270.213C858.631 270.213 863.449 268.948 867.915 266.416C872.381 263.884 875.965 260.201 878.669 255.368C881.489 250.419 882.899 244.665 882.899 238.106Z" fill="#76A379"/>
<path d="M953.015 206.688V259.338C953.015 262.906 953.838 265.495 955.483 267.106C957.246 268.602 960.184 269.35 964.297 269.35H976.638V285.75H960.772C951.722 285.75 944.788 283.678 939.97 279.535C935.151 275.392 932.742 268.66 932.742 259.338V206.688H921.283V190.634H932.742V166.985H953.015V190.634H976.638V206.688H953.015Z" fill="#76A379"/>
<path d="M1045.4 189.081C1052.81 189.081 1059.39 190.634 1065.15 193.742C1071.02 196.849 1075.61 201.452 1078.9 207.551C1082.3 213.651 1084.01 221.016 1084.01 229.647V285.75H1064.09V232.582C1064.09 224.066 1061.91 217.564 1057.57 213.075C1053.22 208.472 1047.28 206.17 1039.76 206.17C1032.24 206.17 1026.25 208.472 1021.78 213.075C1017.43 217.564 1015.26 224.066 1015.26 232.582V285.75H995.16V158.009H1015.26V201.682C1018.67 197.654 1022.95 194.547 1028.13 192.361C1033.41 190.174 1039.17 189.081 1045.4 189.081Z" fill="#76A379"/>
<path d="M1119.87 178.033C1116.23 178.033 1113.17 176.825 1110.7 174.408C1108.23 171.991 1107 168.999 1107 165.432C1107 161.864 1108.23 158.872 1110.7 156.455C1113.17 154.038 1116.23 152.83 1119.87 152.83C1123.39 152.83 1126.39 154.038 1128.86 156.455C1131.33 158.872 1132.56 161.864 1132.56 165.432C1132.56 168.999 1131.33 171.991 1128.86 174.408C1126.39 176.825 1123.39 178.033 1119.87 178.033ZM1129.74 190.634V285.75H1109.64V190.634H1129.74Z" fill="#76A379"/>
</svg>
